<svg width="36" height="38" viewBox="0 0 36 38" fill="none" xmlns="http://www.w3.org/2000/svg">
<path d="M13.6749 1.78125C13.8868 0.747426 14.8122 0 15.8859 0H20.1101C21.1838 0 22.1092 0.747426 22.3211 1.78125L23.3454 6.67096C24.3414 7.09007 25.2738 7.62794 26.1215 8.2636L30.9108 6.69191C31.928 6.35662 33.0441 6.77573 33.5809 7.69779L35.693 11.3162C36.2299 12.2382 36.0391 13.3978 35.2338 14.1033L31.4688 17.4143C31.5324 17.9312 31.5606 18.4621 31.5606 19C31.5606 19.5379 31.5253 20.0688 31.4688 20.5857L35.2409 23.9037C36.0462 24.6092 36.2299 25.7757 35.7001 26.6908L33.588 30.3092C33.0511 31.2243 31.935 31.6504 30.9178 31.3151L26.1285 29.7434C25.2738 30.379 24.3414 30.9099 23.3524 31.336L22.3352 36.2188C22.1162 37.2596 21.1909 38 20.1242 38H15.9C14.8263 38 13.901 37.2526 13.6891 36.2188L12.6719 31.336C11.6759 30.9169 10.7505 30.379 9.89576 29.7434L5.08527 31.3151C4.06807 31.6504 2.95198 31.2312 2.41512 30.3092L0.303028 26.6908C-0.233826 25.7688 -0.0431011 24.6092 0.76218 23.9037L4.53428 20.5857C4.47071 20.0688 4.44245 19.5379 4.44245 19C4.44245 18.4621 4.47777 17.9312 4.53428 17.4143L0.76218 14.0963C-0.0431011 13.3908 -0.226762 12.2243 0.303028 11.3092L2.41512 7.69081C2.95198 6.76875 4.06807 6.34963 5.08527 6.68493L9.87457 8.25662C10.7293 7.62096 11.6617 7.09007 12.6507 6.66397L13.6749 1.78125ZM17.998 24.5882C21.1202 24.5743 23.642 22.0665 23.6279 18.979C23.6138 15.8915 21.0779 13.3978 17.9556 13.4118C14.8334 13.4257 12.3116 15.9335 12.3257 19.021C12.3399 22.1085 14.8758 24.6022 17.998 24.5882Z" fill="white"/>
</svg>
