<svg width="42" height="38" viewBox="0 0 42 38" fill="none" xmlns="http://www.w3.org/2000/svg">
<path d="M2.33349 0C1.04278 0 0 1.06133 0 2.375C0 3.68867 1.04278 4.75 2.33349 4.75H7.64946L14.3655 25.2492C12.7248 26.5555 11.6674 28.5891 11.6674 30.875C11.6674 34.8086 14.803 38 18.6679 38C22.489 38 25.6027 34.8828 25.6683 31.0012L40.4058 25.9988C41.6308 25.5832 42.2871 24.2398 41.8788 22.993C41.4704 21.7461 40.1505 21.0781 38.9255 21.4937L24.1953 26.4961C22.9411 24.8559 20.9941 23.7871 18.7991 23.75L12.0831 3.25078C11.4414 1.30625 9.66209 0 7.64946 0H2.33349ZM15.1677 30.875C15.1677 28.9082 16.7355 27.3125 18.6679 27.3125C20.6003 27.3125 22.1681 28.9082 22.1681 30.875C22.1681 32.8418 20.6003 34.4375 18.6679 34.4375C16.7355 34.4375 15.1677 32.8418 15.1677 30.875ZM20.4545 6.62773C18.6168 7.23633 17.6105 9.24766 18.2085 11.118L21.0962 20.1504C21.6941 22.0207 23.6703 23.0449 25.5079 22.4363L34.3825 19.4973C36.2201 18.8887 37.2264 16.8773 36.6284 15.007L33.748 5.97461C33.1501 4.1043 31.1739 3.08008 29.3363 3.68867L20.4545 6.62773Z" fill="white"/>
</svg>
